<?xml version="1.0" standalone="no"?>
<!DOCTYPE svg PUBLIC "-//W3C//DTD SVG 20010904//EN"
 "http://www.w3.org/TR/2001/REC-SVG-20010904/DTD/svg10.dtd">
<svg version="1.0" xmlns="http://www.w3.org/2000/svg"
 width="512.000000pt" height="512.000000pt" viewBox="0 0 512.000000 512.000000"
 preserveAspectRatio="xMidYMid meet">
<metadata>
Created by potrace 1.11, written by Peter Selinger 2001-2013
</metadata>
<g transform="translate(0.000000,512.000000) scale(0.100000,-0.100000)"
fill="#000000" stroke="none">
<path d="M2488 4505 c-2 -2 -23 -5 -48 -8 -67 -8 -144 -31 -167 -49 -7 -5 -18
-6 -24 -2 -7 4 -9 3 -6 -2 3 -6 -6 -15 -21 -22 -15 -6 -43 -26 -63 -44 -62
-56 -77 -67 -85 -60 -4 4 -4 2 -1 -4 3 -6 -8 -30 -24 -55 -36 -52 -79 -145
-79 -169 0 -9 -3 -20 -7 -24 -10 -10 -14 -34 -17 -111 -2 -62 1 -90 20 -184 7
-34 61 -140 92 -181 45 -59 55 -70 107 -110 193 -148 440 -165 644 -44 255
151 353 478 223 744 -15 30 -31 61 -37 67 -5 7 -23 30 -40 50 -16 21 -49 55
-75 76 -55 45 -189 114 -212 109 -5 -1 -8 1 -8 6 0 4 -12 7 -27 8 -16 1 -54 3
-85 6 -31 3 -58 5 -60 3z"/>
<path d="M3910 4439 c-142 -16 -246 -75 -360 -209 -30 -35 -76 -137 -88 -195
-16 -76 -8 -200 17 -274 120 -348 555 -465 830 -224 139 122 203 315 165 498
-43 205 -228 379 -426 401 -29 3 -57 6 -63 8 -5 1 -39 -1 -75 -5z"/>
<path d="M2423 2894 c-226 -59 -364 -270 -323 -495 28 -156 134 -282 280 -334
61 -22 185 -27 248 -11 157 42 275 160 317 318 12 42 13 156 3 198 -35 145
-144 267 -283 315 -65 23 -176 27 -242 9z"/>
<path d="M3885 2840 c-104 -29 -197 -102 -232 -182 -9 -21 -20 -38 -24 -38 -4
0 -7 -6 -6 -12 0 -7 -1 -24 -1 -37 -2 -21 -4 -22 -19 -10 -16 12 -16 12 -6 -1
6 -8 13 -59 15 -112 1 -53 5 -95 7 -92 2 2 15 -19 28 -47 30 -67 92 -124 173
-163 59 -28 74 -31 160 -31 118 0 181 23 261 94 120 107 149 278 75 436 -75
160 -260 243 -431 195z"/>
<path d="M1038 2724 c-2 -1 -15 -5 -28 -7 -48 -10 -80 -27 -125 -68 -105 -97
-112 -262 -15 -373 52 -59 102 -80 197 -83 48 -1 85 2 89 8 4 6 11 6 20 -2 12
-10 13 -9 8 5 -4 10 -1 16 8 16 25 0 103 83 124 130 13 30 19 65 18 110 -2
141 -104 250 -246 263 -26 3 -48 3 -50 1z"/>
<path d="M2465 1583 c-141 -14 -300 -107 -388 -226 -35 -46 -78 -137 -93 -197
-21 -78 -15 -235 11 -312 12 -37 20 -70 16 -74 -3 -4 0 -4 7 0 6 4 12 2 12 -4
0 -6 11 -28 24 -49 14 -21 22 -42 18 -46 -4 -4 -2 -5 3 -4 6 2 33 -19 62 -46
28 -28 58 -56 67 -63 22 -17 138 -72 154 -72 6 0 12 -3 12 -8 0 -4 12 -8 28
-8 58 -3 144 -14 153 -20 5 -3 9 -1 9 4 0 5 20 8 45 8 25 -1 45 2 45 5 0 14
63 19 79 7 14 -11 14 -11 3 3 -11 14 -9 18 15 24 15 3 39 15 54 26 15 10 31
19 36 19 4 0 19 12 32 25 12 14 27 22 32 19 5 -3 9 -1 9 5 0 15 48 60 56 52 4
-3 4 -1 1 5 -4 6 2 19 13 29 36 33 93 163 107 245 11 65 5 175 -12 235 -80
277 -327 446 -610 418z"/>
</g>
</svg>
